<?xml version="1.0" encoding="utf-8"?>
<!-- Generator: Adobe Illustrator 24.3.0, SVG Export Plug-In . SVG Version: 6.00 Build 0)  -->
<svg version="1.1" id="Layer_1" xmlns="http://www.w3.org/2000/svg" xmlns:xlink="http://www.w3.org/1999/xlink" x="0px" y="0px"
	 viewBox="0 0 138.4 137" style="enable-background:new 0 0 138.4 137;" xml:space="preserve">
<style type="text/css">
	.st0{clip-path:url(#SVGID_2_);}
	.st1{fill:#FFFFFF;}
	.st2{clip-path:url(#SVGID_4_);}
	.st3{fill:url(#SVGID_5_);}
	.st4{fill:url(#SVGID_6_);}
	.st5{fill:url(#SVGID_7_);}
	.st6{fill:url(#SVGID_8_);}
	.st7{clip-path:url(#SVGID_4_);fill:url(#SVGID_9_);}
	.st8{fill:#9B9B9B;}
	.st9{fill:#010101;}
	.st10{fill:#787878;}
	.st11{fill:#CFCFCE;}
	.st12{fill:#87461E;}
</style>
<g>
	<defs>
		<rect id="SVGID_1_" width="138.5" height="136.8"/>
	</defs>
	<clipPath id="SVGID_2_">
		<use xlink:href="#SVGID_1_"  style="overflow:visible;"/>
	</clipPath>
	<g class="st0">
		<rect class="st1" width="138.4" height="137"/>
		<g>
			<defs>
				<rect id="SVGID_3_" x="-15.4" y="-24.2" width="177.9" height="161.6"/>
			</defs>
			<clipPath id="SVGID_4_">
				<use xlink:href="#SVGID_3_"  style="overflow:visible;"/>
			</clipPath>
			<g class="st2">
				
					<linearGradient id="SVGID_5_" gradientUnits="userSpaceOnUse" x1="887.7178" y1="369.0288" x2="887.7178" y2="518.4148" gradientTransform="matrix(-0.7115 -0.7026 -0.7026 0.7115 1044.4777 429.4515)">
					<stop  offset="0.2589" style="stop-color:#FFFFFF"/>
					<stop  offset="1" style="stop-color:#8F9938"/>
				</linearGradient>
				<path class="st3" d="M131.7,50.6c-0.1,0-0.1,0-0.1,0l-0.1,0l-0.1,0l-0.2,0.1l-0.3,0.1c-0.2,0.1-0.4,0.2-0.6,0.3
					c-0.4,0.2-0.7,0.3-1,0.5c-0.7,0.4-1.3,0.7-1.9,1.1c-1.2,0.8-2.5,1.7-3.7,2.7c-2.4,2-4.7,4.3-6.9,7.3c-1.1,1.5-2.2,3.2-3.1,5
					c-1,1.8-1.9,3.8-2.6,5.9c-1.5,4.2-2.4,8.9-2.7,13.3c-0.2,2.2-0.2,4.3-0.1,6.3l0,0.2l0,0.1l0,0.2l0,0.5c0,0.3,0,0.6,0.1,0.9
					c0,0.6,0,1.2,0.1,1.9c0,2.5,0,4.8-0.3,7c-0.3,2.2-0.7,4.2-1.4,6.3c-0.7,2-1.7,4.1-2.9,6.2c-2.5,4.2-5.6,8.9-7.9,14.6
					c-1.2,2.8-2.2,5.7-3,8.8c-0.8,3-1.4,6.1-1.9,9.1l-0.2,1.1c-0.1,0.4-0.1,0.7-0.1,1.1c-0.1,0.7-0.2,1.4-0.3,2.1
					c-0.2,1.4-0.5,2.9-0.7,4.3c-0.5,2.9-1.2,5.7-1.8,8.6c-1.3,5.7-2.9,11.2-4.6,16.7c1.9-5.3,3.8-10.5,5.8-15.8c1-2.6,2-5.3,2.9-8
					c0.5-1.4,1-2.7,1.4-4.1c0.2-0.7,0.5-1.4,0.7-2.1c0.1-0.4,0.2-0.7,0.3-1.1l0.3-1c1.4-5.3,3.3-10.2,5.7-14.2
					c1.2-2,2.5-3.8,3.9-5.5c1.4-1.7,3-3.3,4.6-5.3c1.6-1.9,3.4-4.1,5-6.9c0.8-1.4,1.6-3,2.2-4.6c0.7-1.6,1.3-3.4,1.8-5.1
					c1-3.5,1.7-7.1,2.3-10.6c0.1-0.9,0.2-1.7,0.4-2.6c0.1-0.4,0.1-0.9,0.2-1.3l0.1-0.6l0-0.3l0-0.2c0,0,0-0.1,0-0.1
					c0.2-1,0.4-1.8,0.7-2.6c0.5-1.5,1.2-2.5,1.9-3.2c0.7-0.7,1.6-1.1,2.5-1.4c1-0.3,2.1-0.4,3.3-0.3c0.6,0,1.2,0.2,1.8,0.3
					c0.3,0.1,0.6,0.2,0.8,0.3c0.1,0.1,0.3,0.1,0.4,0.2c0.1,0,0.1,0.1,0.1,0.1c0,0,0,0,0,0.1c0,0,0,0,0,0c0,0,0,0,0,0l0,0
					c0,0,0,0-0.1,0c6.3-0.7,11.3-9.4,11.1-19.5C143.2,57.6,138,49.9,131.7,50.6z"/>
				
					<linearGradient id="SVGID_6_" gradientUnits="userSpaceOnUse" x1="1474.6505" y1="-220.5675" x2="1474.6505" y2="15.6932" gradientTransform="matrix(-0.6295 0.2506 0.7309 1.8357 1066.5212 -112.7186)">
					<stop  offset="0.4156" style="stop-color:#FFFFFF"/>
					<stop  offset="0.4521" style="stop-color:#F2F3EC"/>
					<stop  offset="0.6437" style="stop-color:#B0B78B"/>
					<stop  offset="0.7774" style="stop-color:#86914E"/>
					<stop  offset="0.8407" style="stop-color:#768236"/>
				</linearGradient>
				<path class="st4" d="M25.6,10.8c0.3,0.6,0.5,1.2,0.8,1.8l0.2,0.5l0.2,0.3l0.3,0.7l0.6,1.3c0.2,0.5,0.4,0.9,0.6,1.3
					c0.8,1.8,1.5,3.6,2.2,5.4c0.4,0.9,0.7,1.8,1,2.7c0.3,0.9,0.7,1.8,1,2.8c0.6,1.9,1.2,3.8,1.8,5.8c1.1,4.1,2.1,8.7,3,14.1
					c0.9,5.4,1.6,11.7,2.5,18.6c0.8,6.9,1.8,14.6,3.2,22.3c0.7,3.9,1.4,7.7,2.2,11.5c0.8,3.8,1.6,7.5,2.5,11.1
					c0.9,3.6,1.8,7.1,2.7,10.5c0.5,1.7,0.9,3.4,1.4,5l1.4,4.7c1.8,6.2,3.7,12.3,5.6,18.3c3.7,12,7.5,23.8,11.3,35.4l11.6,35.4
					L82,222c1.6,4.9,3.9,7.2,5.1,4.9c1.2-2.2,0.9-8-0.8-13c-0.5-1.4-1-2.7-1.6-3.6c-0.1-0.1-0.2-0.4-0.3-0.7l-0.4-0.8l-0.8-1.7
					c-0.5-1.2-1-2.4-1.5-3.6c-1-2.5-2-5.1-2.9-7.7c-1.9-5.3-3.8-10.7-5.5-16.3c-3.5-11.2-6.7-23-9.5-34.9c-1.4-6-2.7-11.9-3.9-17.9
					c-0.3-1.5-0.6-3-0.9-4.5c-0.3-1.4-0.5-2.8-0.8-4.2c-0.5-2.7-0.9-5.4-1.3-8c-0.7-5.2-1.1-10-1.3-14.5c-0.2-4.5-0.1-8.7,0.1-13.3
					c0.2-4.6,0.5-9.7,0.7-15.9c0.1-3.1,0.1-6.4,0.1-10c0-3.6-0.1-7.5-0.3-11.6c-0.2-4.1-0.5-8.3-0.9-12.6c-0.2-2.2-0.4-4.3-0.6-6.5
					c-0.2-2.2-0.5-4.4-0.7-6.6c-0.5-4.4-1.1-8.8-1.7-13.2c-0.3-2.2-0.6-4.4-0.9-6.5l-0.2-1.6l-0.1-0.8l-0.1-0.7
					c-0.1-0.9-0.2-1.8-0.3-2.7L50-12.1c-0.1-0.9-0.2-1.9-0.3-2.8c-0.1-0.9-0.2-1.9-0.4-2.8c-0.5-3.8-1-7.6-1.5-11.6l-0.8-6
					c-0.1-1-0.3-2-0.4-3l-0.4-3.1l-0.9-6.3c-0.3-2.1-0.6-4.3-1-6.5c-0.3-2.2-0.6-4.4-1-6.7l-1.1-7l-1.3-7.4
					c-0.2-1.2-0.5-2.6-0.7-3.9l-0.7-4c-0.1-0.7-0.2-1.3-0.4-2l-0.4-2.1l-0.9-4.3l-0.2-1.1l-0.3-1.1l-0.5-2.3l-0.5-2.3
					c-0.2-0.8-0.3-1.5-0.6-2.4c-0.4-1.7-0.8-3.4-1.3-5.1l-0.2-0.6l-0.2-0.7l-0.4-1.4l-0.8-2.9c-0.2-0.9-0.6-2.1-0.9-3.2
					c-0.3-1.1-0.7-2.2-1-3.4c-0.5-1.4-0.9-2.8-1.4-4.2l-0.1-0.3c0-0.1-0.1-0.2-0.1-0.3l-0.3-0.7l-0.6-1.5l-0.6-1.5
					c0,0-0.2-0.4-0.3-0.7l-0.4-0.9l-0.8-1.8C8.6-165.4-9.9-165.7-15-130.8S23.5,6,25.6,10.8z"/>
				
					<linearGradient id="SVGID_7_" gradientUnits="userSpaceOnUse" x1="81.9259" y1="236.3084" x2="81.9259" y2="395.7271" gradientTransform="matrix(0.8844 0.4667 -0.4667 0.8844 83.4814 -214.7714)">
					<stop  offset="0.2589" style="stop-color:#FFFFFF"/>
					<stop  offset="1" style="stop-color:#8F9938"/>
				</linearGradient>
				<path class="st5" d="M12.6,15.3c0.1,0.1,0.1,0.1,0.1,0.1l0.1,0.1l0.1,0.1l0.2,0.2l0.3,0.4c0.2,0.2,0.4,0.5,0.6,0.7
					c0.4,0.5,0.7,0.9,1.1,1.3c0.7,0.9,1.4,1.7,2,2.6c1.3,1.8,2.5,3.6,3.7,5.4c2.3,3.7,4.5,7.8,6.4,12.1c1.9,4.4,3.6,9.1,4.7,14
					c1.2,4.9,1.9,10.1,2.1,15c0.1,2.5,0,4.9-0.1,7.2c-0.1,1.2-0.2,2.3-0.3,3.4c-0.1,0.6-0.1,1.1-0.2,1.6c0,0.1,0,0.3-0.1,0.4
					l-0.1,0.2l-0.1,0.5c-0.3,1.2-0.5,2.5-0.6,3.7c-0.1,1.2-0.2,2.4-0.2,3.6c0,2.3,0.3,4.7,1.1,7.4c0.4,1.4,0.9,2.8,1.5,4.3
					c0.6,1.5,1.3,3.1,2,4.7c1.4,3.3,3,7.1,4.1,11.3c0.5,2.1,0.9,4.2,1.1,6.3c0.2,2.1,0.3,4.2,0.3,6.2c0,2-0.2,3.9-0.4,5.7
					c-0.2,1.8-0.5,3.6-0.8,5.3c-0.7,3.5-1.5,6.7-2.5,9.9c-1,3.1-2.2,6.1-3.4,8.9c-1.2,2.8-2.6,5.5-4.1,8c-1.4,2.6-3,5-4.5,7.3
					c-0.8,1.2-1.6,2.3-2.4,3.4c-0.8,1.1-1.7,2.2-2.5,3.2c1.7-2.1,3.2-4.5,4.7-7c1.4-2.5,2.8-5.2,4-7.9c2.4-5.5,4.4-11.5,5.7-17.9
					c0.6-3.2,1.1-6.4,1.3-9.8c0.1-1.6,0.2-3.3,0.2-5c0-1.6-0.1-3.3-0.3-4.8c-0.4-3.1-1.1-6-2.2-8.6c-1.1-2.6-2.6-4.9-4.3-7.4
					c-0.9-1.3-1.8-2.6-2.8-4.1c-1-1.5-2-3.1-3-4.9c-1-1.8-1.9-3.8-2.8-6c-0.8-2.2-1.6-4.5-2.1-6.9c-0.6-2.4-1-4.8-1.3-7.1
					c-0.3-2.4-0.5-4.6-0.6-6.9l0-0.8l0-0.4c0-0.2,0-0.2,0-0.3c0-0.3,0-0.6-0.1-1c-0.1-0.6-0.1-1.3-0.2-1.9c-0.2-1.2-0.4-2.4-0.7-3.5
					c-1.2-4.4-3.2-7.9-5.8-10.9c-1.3-1.5-2.8-2.8-4.4-3.9c-0.8-0.5-1.6-1-2.4-1.4c-0.4-0.2-0.8-0.4-1.2-0.5
					c-0.2-0.1-0.4-0.1-0.5-0.1c-0.1,0-0.2,0-0.2,0c0,0-0.1,0-0.1,0c0,0,0,0,0,0c0,0,0,0,0,0l0,0c0,0,0,0,0.1,0.1
					c-7.1-5.5-10.6-18.1-7.9-28S5.5,9.8,12.6,15.3z"/>
				
					<linearGradient id="SVGID_8_" gradientUnits="userSpaceOnUse" x1="159.8777" y1="-128.0972" x2="159.8777" y2="203.8386" gradientTransform="matrix(1.3076 -5.610583e-02 4.541338e-02 1.0584 -153.5833 10.6401)">
					<stop  offset="0.4156" style="stop-color:#FFFFFF"/>
					<stop  offset="0.4521" style="stop-color:#F2F3EC"/>
					<stop  offset="0.6437" style="stop-color:#B0B78B"/>
					<stop  offset="0.7774" style="stop-color:#86914E"/>
					<stop  offset="0.8407" style="stop-color:#768236"/>
				</linearGradient>
				<path class="st6" d="M84.1-12.6c-0.3,0.5-0.5,1.1-0.8,1.6l-0.2,0.4l-0.2,0.3l-0.3,0.6l-0.7,1.2c-0.2,0.4-0.4,0.8-0.6,1.2
					c-0.8,1.6-1.6,3.2-2.1,4.7c-0.3,0.8-0.6,1.5-0.9,2.3c-0.3,0.8-0.5,1.5-0.7,2.3c-0.4,1.6-0.7,3.1-0.8,4.7
					c-0.3,3.2,0.1,6.7,1.2,10.6c1.1,3.9,3,8.3,5.1,13.1c2.1,4.8,4.2,10.2,5.6,15.9c0.7,2.8,1.3,5.6,1.6,8.5c0.4,2.8,0.6,5.7,0.6,8.4
					c0.1,2.8,0,5.5-0.3,8.2c-0.1,1.3-0.2,2.7-0.4,4l-0.5,3.7c-0.8,4.9-1.6,9.8-2.5,14.7c-1.8,9.7-3.8,19.3-6,28.8l-6.8,29l-0.3,1.1
					c-0.9,4.1-5.1,6.8-9.3,6.1c-4.2-0.7-6.8-4.5-5.8-8.6c0.3-1.2,0.9-2.3,1.6-3.2c0.1-0.1,0.3-0.4,0.4-0.6l0.4-0.7l0.8-1.5
					c0.5-1,1-2.1,1.5-3.2c0.9-2.1,1.7-4.3,2.5-6.5c1.5-4.4,2.6-8.9,3.5-13.5c1.8-9.1,2.4-18.3,2.1-27.5c-0.2-4.6-0.6-9.1-1.3-13.5
					c-0.2-1.1-0.4-2.2-0.5-3.3c-0.2-1-0.4-2.1-0.6-3.1c-0.5-2-1.1-3.9-1.7-5.8c-1.4-3.7-3.2-6.9-5.5-9.8c-2.3-2.9-5-5.5-8.2-8.3
					c-3.2-2.8-7-5.8-11.1-9.5c-2-1.9-4.1-4-6.2-6.2c-2.1-2.3-4.1-4.8-6.1-7.4c-1.9-2.7-3.7-5.5-5.4-8.4c-0.8-1.5-1.6-3-2.4-4.5
					c-0.8-1.5-1.5-3-2.2-4.5C19.4,6.2,18.1,3.1,17,0c-0.5-1.6-1.1-3.1-1.6-4.6L15-5.8l-0.2-0.6l-0.2-0.5c-0.3-0.6-0.5-1.3-0.8-1.9
					l-1.6-3.9c-0.3-0.7-0.6-1.3-0.8-2c-0.3-0.7-0.5-1.3-0.8-2c-1-2.7-2.2-5.3-3.3-8.1L5.7-29c-0.3-0.7-0.6-1.4-0.8-2.1l-0.8-2.2
					l-1.6-4.5c-0.5-1.5-1-3.1-1.5-4.7c-0.5-1.6-1.1-3.1-1.5-4.8L-2-52.3l-1.3-5.4c-0.2-0.9-0.4-1.9-0.6-2.8l-0.6-2.9
					c-0.1-0.5-0.2-1-0.3-1.5L-5-66.6l-0.4-3.2l-0.1-0.8l-0.1-0.9l-0.1-1.8l-0.1-1.8c0-0.6-0.1-1.2-0.1-1.8c0-1.3,0-2.6,0-4l0-0.5
					l0-0.6l0.1-1.1l0.2-2.3c0-0.7,0.2-1.7,0.3-2.6c0.2-0.9,0.3-1.8,0.5-2.7c0.3-1.1,0.6-2.3,0.9-3.4l0.1-0.2c0-0.1,0-0.1,0.1-0.3
					l0.2-0.6l0.5-1.3l0.5-1.3c0,0,0.2-0.3,0.3-0.6l0.4-0.8l0.9-1.6c21.5-32.4,65.4-43.4,98-24.5S86.2-16.8,84.1-12.6z"/>
			</g>
			
				<linearGradient id="SVGID_9_" gradientUnits="userSpaceOnUse" x1="1308.8419" y1="-49.8244" x2="1308.8419" y2="186.1325" gradientTransform="matrix(-0.6299 -0.2498 -0.7284 1.8367 970.5004 266.8898)">
				<stop  offset="0.4156" style="stop-color:#FFFFFF"/>
				<stop  offset="0.4521" style="stop-color:#F2F3EC"/>
				<stop  offset="0.6437" style="stop-color:#B0B78B"/>
				<stop  offset="0.7774" style="stop-color:#86914E"/>
				<stop  offset="0.8407" style="stop-color:#768236"/>
			</linearGradient>
			<path class="st7" d="M116.5-4.1c-0.1,0.7-0.1,1.5-0.2,2.2l0,0.6l0,0.4L116.2,0l-0.1,1.7c0,0.6-0.1,1.1-0.1,1.7
				c-0.2,2.2-0.4,4.4-0.6,6.5c-0.1,1.1-0.2,2.1-0.4,3.2c-0.1,1-0.3,2.1-0.5,3.1c-0.3,2.1-0.7,4.1-1.1,6.3c-0.9,4.2-2.1,8.7-3.7,13.7
				c-1.6,4.9-3.7,10.3-6,16.4c-2.3,6-4.7,12.7-7,19.8c-1.1,3.6-2.2,7.2-3.2,10.8c-1,3.6-2,7.3-2.8,10.9c-0.9,3.6-1.7,7.2-2.4,10.7
				c-0.4,1.8-0.7,3.5-1.1,5.3l-0.9,5c-1.2,6.6-2.4,13.1-3.6,19.6c-2.3,13-4.4,25.8-6.5,38.5l-6.3,38.9l-0.2,1.5
				c-0.9,5.4-0.1,9.6,1.7,9.4c1.8-0.2,4-4.9,4.8-10.3c0.3-1.6,0.4-3.1,0.4-4.4c0-0.2,0-0.6,0-0.9l0.1-1l0.2-2.1
				c0.1-1.4,0.3-2.9,0.4-4.4c0.3-2.9,0.7-5.9,1.1-8.9c0.8-6,1.7-12.1,2.8-18.1c2.1-12.2,4.7-24.3,7.6-36.1c1.5-5.9,3-11.8,4.6-17.5
				c0.4-1.4,0.8-2.9,1.2-4.2c0.4-1.3,0.8-2.6,1.2-3.9c0.8-2.5,1.6-5,2.4-7.3c1.7-4.6,3.3-8.5,5.1-11.9c1.8-3.4,3.6-6.4,5.6-9.5
				c2.1-3.1,4.4-6.4,7.1-10.7c1.4-2.1,2.8-4.5,4.3-7.2c1.5-2.6,3-5.6,4.6-8.8c1.6-3.2,3.1-6.6,4.6-10.2c0.8-1.8,1.5-3.6,2.3-5.5
				c0.8-1.8,1.5-3.7,2.2-5.6c1.4-3.8,2.9-7.6,4.2-11.5c0.7-1.9,1.4-3.9,2-5.8l0.5-1.5l0.2-0.7l0.2-0.6c0.3-0.8,0.6-1.6,0.9-2.4
				l1.8-4.8c0.3-0.8,0.6-1.6,0.9-2.4c0.3-0.8,0.6-1.6,0.9-2.5c1.2-3.3,2.5-6.6,3.7-10.1l1.9-5.3c0.3-0.9,0.6-1.8,1-2.7l1-2.8l2-5.6
				c0.7-1.9,1.3-3.9,2-5.8c0.7-2,1.4-3.9,2.1-6.1l2.1-6.4l2.1-6.8c0.4-1.1,0.7-2.4,1.1-3.6l1.1-3.7c0.2-0.6,0.4-1.2,0.6-1.9l0.6-2
				l1.1-4.1l0.3-1l0.3-1.1l0.6-2.3l0.6-2.3c0.2-0.8,0.4-1.5,0.6-2.4c0.4-1.7,0.8-3.4,1.2-5.2l0.2-0.7l0.2-0.7l0.3-1.5l0.6-3
				c0.2-0.9,0.4-2.2,0.7-3.4c0.2-1.2,0.4-2.4,0.7-3.6c0.2-1.5,0.5-3.1,0.7-4.6l0-0.3c0-0.1,0-0.2,0-0.4l0.1-0.9l0.2-1.7l0.2-1.7
				c0-0.1,0-0.5,0.1-0.9l0.1-1.1l0.1-2.2c1.8-45.6-11.6-66.7-29.8-47.2S117-10,116.5-4.1z"/>
		</g>
		<g>
			<path class="st1" d="M120.7,6.9c-3-2.7-7.2-3.5-9.9-1.8c-1.5,1-2.4,2.6-2.5,4.6c-0.1,2,0.7,4,2.1,5.9c0.3,0.3,0.6,0.7,0.9,1
				c1.2,1.1,3,2,5.2,2.7c0.1,0.2,0.3,0.4,0.4,0.6c0.2,0.2,0.3,0.4,0.5,0.6c0,2.7,0.6,4.8,1.9,6.4c0.4,0.5,0.8,1,1.3,1.4
				c3,2.7,7.2,3.5,9.9,1.8c3.2-2,3.4-6.7,0.4-10.4c-0.3-0.3-0.6-0.7-0.9-1c-1.2-1.1-3-2-5.2-2.7c-0.1-0.2-0.3-0.4-0.4-0.6
				c-0.2-0.2-0.3-0.4-0.5-0.6c0-2.7-0.6-4.8-1.9-6.4C121.6,7.7,121.2,7.3,120.7,6.9L120.7,6.9z"/>
			<g>
				<path class="st1" d="M93.6,62.5c-0.6-2.4-1-4.8-1.3-7.3l-0.1-1.9c0-0.6,0-1.3,0-1.9c0-1.3,0.1-2.6,0.2-3.9
					c0.7-5.2,2.7-10.2,5.6-14.5c2.8-4.4,6.3-8.3,10.1-11.7c1.8-1.8,3.9-3.3,5.8-5c0.5-0.4,1-0.8,1.5-1.2l1.5-1.1l3.1-2.2l5.3,9.1
					l-3.1,1.6l-1.6,0.8c-0.5,0.3-1,0.5-1.5,0.8c-2,1.2-4.1,2.3-5.9,3.6c-3.9,2.5-7.4,5.5-10.4,8.8c-3,3.4-5.4,7.3-6.7,11.7
					c-0.3,1.1-0.6,2.2-0.7,3.4c-0.1,0.6-0.2,1.1-0.3,1.7l-0.1,1.8c-0.1,2.4,0,4.7,0.1,7.2L93.6,62.5z"/>
				<g>
					<polygon class="st8" points="94.3,62.4 93.8,59.4 94.3,59.3 94.6,62.4 					"/>
					<path class="st8" d="M93.4,53.6c0-2,0.2-3.9,0.5-5.8l0.9,0.2c-0.4,1.9-0.7,3.8-0.7,5.7L93.4,53.6z"/>
					<path class="st8" d="M95.6,42.1c0.7-1.8,1.6-3.6,2.7-5.3l1.1,0.7c-1.1,1.6-2,3.2-2.7,5L95.6,42.1z"/>
					<path class="st8" d="M101.7,32c1.2-1.5,2.6-3,4-4.3l1.2,1.3c-1.4,1.3-2.8,2.6-4,4L101.7,32z"/>
					<polygon class="st8" points="110,23.8 114.7,20.2 115.9,22 111.2,25.3 					"/>
					<polygon class="st8" points="119.5,16.9 122.2,15.3 123.4,17.4 120.8,19 					"/>
				</g>
			</g>
			<path class="st9" d="M120.6,25c-0.3-0.2-0.5-0.5-0.8-0.8c-0.8-1-1-2.6-0.8-4.8c-0.1-0.1-0.2-0.1-0.2-0.2
				c-0.2-0.1-0.3-0.3-0.4-0.4c-0.2-0.2-0.3-0.5-0.4-0.8c-1.8-0.2-3.2-0.6-4-1.3c-0.2-0.1-0.3-0.3-0.5-0.5c-1.7-2.2-1.4-5.3,0.8-7.1
				c1.8-1.5,4.5-1.5,6.3,0c0.3,0.2,0.5,0.5,0.8,0.8c0.8,1,1,2.6,0.8,4.8c0.1,0,0.2,0.1,0.2,0.2c0.2,0.1,0.3,0.3,0.4,0.4
				c0.2,0.2,0.3,0.5,0.4,0.8c1.8,0.2,3.2,0.6,4,1.3c0.2,0.1,0.3,0.3,0.5,0.5c0.8,1,1.2,2.4,1.1,3.7c-0.1,1.3-0.8,2.5-1.8,3.4
				C125.1,26.5,122.4,26.5,120.6,25z M122,19.5c0,0.1,0,0.3,0,0.4c-0.2,2,0.2,2.5,0.2,2.5c0.1,0.1,0.2,0.2,0.3,0.3
				c0.7,0.6,1.8,0.6,2.6,0c0.4-0.3,0.7-0.8,0.8-1.4c0.1-0.5-0.1-1.1-0.4-1.5c0,0,0,0,0,0c-0.1-0.1-0.7-0.5-2.3-0.7
				c-0.1,0-0.3,0-0.4,0c-0.1,0.1-0.2,0.2-0.3,0.2C122.2,19.4,122.1,19.4,122,19.5z M118.7,11.6c-0.7-0.6-1.8-0.6-2.6,0
				c-0.9,0.7-1,2-0.3,2.9c0,0,0,0,0,0c0.1,0.1,0.7,0.5,2.3,0.7c0.1,0,0.3,0,0.4,0c0.1-0.1,0.2-0.2,0.3-0.2c0.1-0.1,0.2-0.1,0.3-0.2
				c0-0.1,0-0.3,0-0.4c0.2-2-0.2-2.5-0.2-2.5C118.9,11.8,118.8,11.7,118.7,11.6z"/>
			<path class="st1" d="M119.8,10.1c0.2,0.2,0.4,0.4,0.6,0.6c0.8,1,0.7,3.2,0.5,4.8c0.3,0.1,0.5,0.2,0.7,0.3
				c0.1,0.1,0.2,0.2,0.3,0.3c0.3,0.3,0.4,0.7,0.4,1.1c1.4,0.1,3.2,0.4,4.2,1.1c0.1,0.1,0.2,0.2,0.3,0.3c1.4,1.7,1.1,4.2-0.6,5.5
				c-1.5,1.2-3.5,1.1-4.9,0c-0.2-0.2-0.4-0.4-0.6-0.6c-0.8-1-0.7-3.2-0.5-4.8c-0.3-0.1-0.5-0.2-0.7-0.3c-0.1-0.1-0.2-0.2-0.3-0.3
				c-0.3-0.3-0.4-0.7-0.4-1.1c-1.4-0.1-3.2-0.4-4.2-1.1c-0.1-0.1-0.2-0.2-0.3-0.3c-1.4-1.7-1.1-4.2,0.6-5.5
				C116.4,8.9,118.4,9,119.8,10.1 M115.1,15.3c0.4,0.3,1.2,0.7,2.9,0.9c0.4,0,0.7,0.1,1,0.1c0.1-0.2,0.3-0.4,0.4-0.5
				c0.2-0.1,0.4-0.3,0.6-0.3c0.1-0.3,0.1-0.7,0.1-1c0.2-2.1-0.2-3-0.4-3.3c-0.1-0.2-0.3-0.3-0.5-0.5c-1.1-0.9-2.8-0.9-4,0
				c-1.4,1.1-1.6,3.1-0.5,4.4C115,15.2,115,15.3,115.1,15.3 M121.8,23.5c1.1,0.9,2.8,0.9,4,0c1.4-1.1,1.6-3.1,0.5-4.4
				c0-0.1-0.1-0.1-0.2-0.2c-0.4-0.3-1.2-0.7-2.9-0.9c-0.4,0-0.7-0.1-1-0.1c-0.1,0.2-0.3,0.4-0.4,0.5c-0.2,0.1-0.4,0.3-0.6,0.3
				c-0.1,0.3-0.1,0.7-0.1,1c-0.2,2.1,0.2,3,0.4,3.3C121.4,23.2,121.6,23.4,121.8,23.5 M121.2,8.4c-2.2-1.8-5.5-1.8-7.7,0
				c-1.3,1-2.1,2.5-2.3,4.1c-0.2,1.6,0.3,3.2,1.3,4.5c0.2,0.2,0.4,0.5,0.7,0.7c0.9,0.7,2.2,1.2,4,1.5c0.1,0.1,0.2,0.3,0.3,0.4
				c0.1,0.1,0.2,0.3,0.4,0.4c-0.2,2.2,0.2,3.9,1.1,5c0.3,0.3,0.6,0.7,0.9,0.9c2.2,1.8,5.5,1.8,7.7,0c2.6-2.1,3.1-6,0.9-8.6
				c-0.2-0.2-0.4-0.5-0.7-0.7c-0.9-0.7-2.2-1.2-4-1.5c-0.1-0.1-0.2-0.3-0.3-0.4c-0.1-0.1-0.2-0.3-0.4-0.4c0.2-2.2-0.2-3.9-1.1-5
				C121.9,9,121.6,8.7,121.2,8.4L121.2,8.4z M116.6,13.6c-0.1-0.2-0.1-0.5-0.1-0.6c0-0.1,0.1-0.4,0.3-0.6c0.3-0.3,0.8-0.3,1.2,0
				c0,0,0,0,0.1,0c0,0.2,0.1,0.6,0,1.5C117.2,13.9,116.7,13.7,116.6,13.6L116.6,13.6z M123.1,20.2c0.9,0.1,1.3,0.3,1.5,0.4
				c0.2,0.4,0.1,0.9-0.2,1.2c-0.3,0.3-0.8,0.3-1.2,0c0,0,0,0-0.1,0C123.1,21.6,123,21.1,123.1,20.2L123.1,20.2z"/>
			<path class="st10" d="M111.5,9.8c-0.1-0.6,0.2-1.2,0.5-1.7c0.3-0.5,0.8-0.9,1.3-1.2c0.5-0.3,1.1-0.5,1.7-0.5c0.3,0,0.6,0,0.9,0
				c0.3,0.1,0.6,0.1,0.9,0.2c-0.3,0.2-0.5,0.3-0.8,0.4c-0.2,0.1-0.5,0.2-0.7,0.3c-0.5,0.2-0.9,0.4-1.3,0.7c-0.4,0.2-0.8,0.5-1.2,0.8
				C112.3,9.1,111.9,9.4,111.5,9.8z"/>
			<path class="st10" d="M130.5,24.8c0.1,0.6-0.1,1.2-0.4,1.7c-0.3,0.5-0.8,0.9-1.3,1.2c-0.5,0.3-1.1,0.5-1.7,0.6
				c-0.3,0-0.6,0-0.9,0c-0.3,0-0.6-0.1-0.9-0.2c0.3-0.2,0.5-0.3,0.8-0.4c0.2-0.1,0.5-0.2,0.7-0.4c0.5-0.2,0.9-0.5,1.3-0.7
				c0.4-0.2,0.8-0.5,1.2-0.8C129.7,25.6,130.1,25.2,130.5,24.8z"/>
			<g>
				<path class="st1" d="M111.3,7.9c0,0,0.3-2.8,3.2-2.5"/>
				<path class="st11" d="M111.3,7.9c-0.1-0.4,0-0.8,0.1-1.2c0.1-0.4,0.4-0.7,0.7-1c0.3-0.3,0.7-0.5,1.1-0.5c0.4-0.1,0.8,0,1.2,0.2
					c-0.4,0.1-0.7,0.2-1.1,0.3c-0.3,0.1-0.6,0.3-0.9,0.5C112,6.7,111.7,7.2,111.3,7.9z"/>
			</g>
			<g>
				<path class="st1" d="M130.5,27.1c0,0-0.7,2.7-3.5,2"/>
				<path class="st11" d="M130.5,27.1c0,0.4-0.1,0.8-0.3,1.1c-0.2,0.4-0.5,0.7-0.9,0.9c-0.4,0.2-0.8,0.3-1.2,0.3
					c-0.4,0-0.8-0.1-1.1-0.3c0.4,0,0.8-0.1,1.1-0.1c0.3-0.1,0.7-0.2,0.9-0.3C129.6,28.3,130,27.8,130.5,27.1z"/>
			</g>
		</g>
		<g>
			<path class="st1" d="M10.9,40.5c-0.3,0.7-0.4,1.4-0.6,2.1c-0.4,2.2,0,4.7,1.5,7.4c-0.1,0.3-0.2,0.5-0.2,0.8
				c-0.1,0.3-0.1,0.6-0.1,0.8c-1.9,1.9-3.2,3.7-3.9,5.5c-0.2,0.5-0.3,1-0.4,1.4c-1,5.3,1.6,10,5.9,10.3c3.6,0.3,7.5-2.6,9.1-7
				c0.3-0.7,0.4-1.4,0.6-2.1c0.4-2.2,0-4.7-1.5-7.4c0.1-0.3,0.2-0.5,0.2-0.8c0.1-0.3,0.1-0.6,0.1-0.8c1.9-1.9,3.2-3.7,3.9-5.5
				c0.2-0.5,0.3-1,0.4-1.4c0.5-2.6,0.2-5.1-0.9-7c-1.1-2-2.9-3.1-4.9-3.3C16.4,33.3,12.6,36.2,10.9,40.5L10.9,40.5z"/>
			<g>
				<path class="st1" d="M67.5,82.9c-0.7-2.7-1.5-5.4-2.6-8.1l-0.9-2c-0.3-0.7-0.7-1.3-1-2c-0.6-1.3-1.5-2.5-2.3-3.8
					c-3.4-4.9-8.1-8.9-13.3-11.8c-5.2-3-10.8-5.1-16.4-6.6c-2.8-0.9-5.7-1.3-8.5-2c-0.7-0.2-1.4-0.3-2.1-0.4l-2.1-0.3l-4.3-0.7
					l-0.6,12l4,0l2,0c0.7,0,1.3,0,2,0c2.6,0.2,5.3,0.2,7.9,0.6c5.3,0.5,10.4,1.7,15.2,3.5c4.8,1.9,9.3,4.6,12.9,8.3
					c0.8,1,1.8,1.9,2.5,3c0.4,0.5,0.8,1.1,1.2,1.6l1.1,1.7c1.4,2.3,2.5,4.8,3.6,7.3L67.5,82.9z"/>
				<g>
					<polygon class="st8" points="66.9,83.1 65.7,79.7 65.2,79.9 66.5,83.2 					"/>
					<path class="st8" d="M63.1,73.6c-1-2-2.2-3.9-3.6-5.6l-0.8,0.7c1.4,1.7,2.6,3.5,3.7,5.4L63.1,73.6z"/>
					<path class="st8" d="M54.9,63.1c-1.7-1.5-3.5-2.8-5.4-3.9l-0.8,1.3c1.9,1.1,3.7,2.3,5.4,3.6L54.9,63.1z"/>
					<path class="st8" d="M43.4,56.1c-2.1-0.9-4.2-1.6-6.3-2.3l-0.5,1.9c2.1,0.6,4.2,1.2,6.2,2L43.4,56.1z"/>
					<polygon class="st8" points="30.7,52.1 24.1,51 23.7,53.4 30.2,54.3 					"/>
					<polygon class="st8" points="17.4,50.2 13.8,49.9 13.7,52.7 17.2,52.9 					"/>
				</g>
			</g>
			<path class="st9" d="M14.2,62.2c-1.5-0.3-2.8-1.2-3.6-2.5c-0.8-1.3-1.1-2.8-0.8-4.3c0.1-0.2,0.1-0.5,0.2-0.7
				c0.5-1.1,1.6-2.3,3.4-3.4c0-0.3,0-0.7,0-1c0-0.2,0.1-0.4,0.2-0.7c0-0.1,0.1-0.2,0.1-0.3c-1.4-2.1-2-3.9-1.7-5.3
				c0.1-0.4,0.2-0.8,0.4-1.2c1.1-2.4,3.8-3.8,6.4-3.3c3.1,0.6,5.1,3.7,4.5,6.8c-0.1,0.2-0.1,0.5-0.2,0.7c-0.5,1.1-1.6,2.3-3.4,3.4
				c0,0.3,0,0.7,0,1c0,0.2-0.1,0.4-0.2,0.7c0,0.1-0.1,0.2-0.1,0.3c1.4,2.1,2,3.9,1.7,5.2c-0.1,0.4-0.2,0.8-0.4,1.2
				C19.5,61.3,16.8,62.7,14.2,62.2z M15.8,54c-0.1,0-0.3-0.1-0.4-0.1c-0.1,0.1-0.3,0.2-0.4,0.2c-1.6,1.1-1.9,1.7-2,1.9
				c0,0,0,0,0,0.1c-0.1,0.6,0,1.2,0.3,1.8c0.3,0.5,0.9,0.9,1.5,1c1.1,0.2,2.2-0.3,2.6-1.3c0.1-0.2,0.1-0.3,0.2-0.5
				c0,0,0.1-0.7-1.1-2.6c-0.1-0.1-0.2-0.2-0.2-0.4C16.1,54.1,16,54,15.8,54z M15.3,44.7c0,0-0.1,0.7,1.1,2.6
				c0.1,0.1,0.2,0.2,0.2,0.4c0.1,0,0.3,0,0.4,0.1c0.1,0,0.3,0.1,0.4,0.1c0.1-0.1,0.3-0.2,0.4-0.2c1.6-1.1,1.9-1.7,2-1.9
				c0,0,0,0,0-0.1c0.3-1.3-0.6-2.5-1.8-2.8c-1.1-0.2-2.2,0.3-2.6,1.3C15.4,44.4,15.4,44.6,15.3,44.7z"/>
			<path class="st1" d="M13.5,43.4c0.8-1.9,2.9-3,5-2.6c2.4,0.5,4,2.9,3.5,5.3c0,0.2-0.1,0.3-0.2,0.5c-0.6,1.3-2.3,2.6-3.7,3.4
				c0.2,0.4,0.3,0.8,0.2,1.3c0,0.1-0.1,0.3-0.1,0.4c-0.1,0.3-0.3,0.5-0.6,0.7c1,1.4,2.3,3.6,2,5.1c-0.1,0.3-0.2,0.6-0.3,0.9
				c-0.8,1.9-2.9,3-5,2.6c-2.4-0.5-4-2.9-3.5-5.3c0-0.2,0.1-0.3,0.2-0.5c0.6-1.3,2.3-2.6,3.7-3.4c-0.2-0.4-0.3-0.8-0.2-1.3
				c0-0.1,0.1-0.3,0.1-0.4c0.1-0.3,0.3-0.5,0.6-0.7c-1-1.4-2.3-3.6-2-5.1C13.3,44,13.4,43.7,13.5,43.4 M21,46.2
				c0.1-0.1,0.1-0.2,0.1-0.3c0.4-1.9-0.9-3.8-2.8-4.2c-1.7-0.3-3.3,0.6-4,2.1c-0.1,0.2-0.2,0.5-0.2,0.7c-0.1,0.4,0,1.5,1.3,3.5
				c0.2,0.4,0.5,0.7,0.7,1c0.3-0.1,0.5-0.1,0.8,0c0.3,0.1,0.5,0.2,0.7,0.3c0.3-0.2,0.7-0.4,1-0.6C20.2,47.6,20.8,46.7,21,46.2
				 M18.6,58c0.1-0.2,0.2-0.5,0.2-0.7c0.1-0.4,0-1.5-1.3-3.5c-0.2-0.4-0.5-0.7-0.7-1c-0.3,0.1-0.5,0.1-0.8,0
				c-0.3-0.1-0.5-0.2-0.7-0.3c-0.3,0.2-0.7,0.4-1,0.6c-1.6,1.1-2.2,1.9-2.5,2.4c-0.1,0.1-0.1,0.2-0.1,0.3c-0.4,1.9,0.9,3.8,2.8,4.2
				C16.3,60.4,17.9,59.5,18.6,58 M11.2,42.4c-0.2,0.5-0.4,0.9-0.5,1.4c-0.3,1.6,0.2,3.4,1.5,5.6c-0.1,0.2-0.1,0.4-0.2,0.6
				c0,0.2-0.1,0.4-0.1,0.6c-1.6,1.2-2.7,2.3-3.2,3.6c-0.1,0.3-0.3,0.7-0.3,1c-0.8,3.8,1.7,7.5,5.5,8.3c3.2,0.7,6.5-1,7.8-4
				c0.2-0.5,0.4-0.9,0.5-1.4c0.3-1.6-0.2-3.4-1.5-5.6c0.1-0.2,0.1-0.4,0.2-0.6c0-0.2,0.1-0.4,0.1-0.6c1.6-1.2,2.7-2.3,3.2-3.6
				c0.1-0.3,0.3-0.7,0.3-1c0.4-1.8,0-3.7-1-5.3c-1-1.6-2.6-2.6-4.4-3C15.8,37.7,12.5,39.4,11.2,42.4L11.2,42.4z M18.7,45.3
				c-0.1,0.2-0.5,0.6-1.3,1.2c-0.6-0.9-0.7-1.4-0.8-1.6c0,0,0,0,0-0.1c0.2-0.5,0.7-0.7,1.2-0.6c0.4,0.1,0.6,0.3,0.7,0.5
				C18.6,44.7,18.7,45,18.7,45.3L18.7,45.3z M15.5,55.3c0.6,0.9,0.7,1.4,0.8,1.6c0,0,0,0,0,0.1c-0.2,0.5-0.7,0.7-1.2,0.6
				c-0.5-0.1-0.9-0.6-0.9-1.1C14.3,56.3,14.7,55.9,15.5,55.3L15.5,55.3z"/>
			<path class="st10" d="M21.8,38.7c-0.3-0.6-0.8-1.1-1.4-1.5c-0.6-0.3-1.3-0.5-2-0.5c-0.7,0-1.4,0.1-2,0.4
				c-0.3,0.1-0.6,0.3-0.9,0.5c-0.3,0.2-0.5,0.4-0.7,0.7c0.4,0,0.7,0,1,0c0.3,0,0.6,0,0.9,0c0.6,0,1.1,0,1.7,0c0.5,0,1.1,0.1,1.6,0.2
				C20.6,38.4,21.2,38.5,21.8,38.7z"/>
			<path class="st10" d="M10.4,63.9c0.2,0.7,0.8,1.1,1.4,1.5c0.6,0.3,1.3,0.5,2,0.6c0.7,0,1.4-0.1,2-0.3c0.3-0.1,0.6-0.3,0.9-0.4
				c0.3-0.2,0.5-0.4,0.8-0.6c-0.4,0-0.7,0-1,0c-0.3,0-0.6,0-0.9,0c-0.6,0-1.1,0-1.7,0c-0.5,0-1.1-0.1-1.6-0.2
				C11.6,64.3,11,64.1,10.4,63.9z"/>
			<g>
				<path class="st1" d="M21,36.7c0,0-1.7-2.7-4.5-0.9"/>
				<path class="st11" d="M21,36.7c-0.1-0.4-0.4-0.8-0.7-1.1c-0.3-0.3-0.8-0.5-1.3-0.6c-0.5-0.1-1-0.1-1.4,0.1
					c-0.4,0.2-0.8,0.4-1.1,0.8c0.4-0.1,0.8-0.2,1.2-0.2c0.4-0.1,0.8,0,1.1,0.1C19.6,35.8,20.3,36.2,21,36.7z"/>
			</g>
			<g>
				<path class="st1" d="M11.7,66.2c0,0,2.1,2.3,4.6,0.2"/>
				<path class="st11" d="M11.7,66.2c0.2,0.4,0.5,0.7,0.9,1c0.4,0.3,0.9,0.4,1.3,0.4c0.5,0,1-0.1,1.4-0.3c0.4-0.2,0.7-0.6,1-0.9
					c-0.4,0.2-0.8,0.3-1.2,0.4C14.7,67,14.3,67,13.9,67C13.2,66.9,12.5,66.6,11.7,66.2z"/>
			</g>
		</g>
		<g>
			<path class="st12" d="M68.1,115.5c2.1,0.3,3.4,0.6,7.3,0.6c6,0,6,10,11.9,10c6,0,6,4.6,11.9,4.6c6,0,6-0.8,11.9-0.8
				c6,0,1.7,4.8,7.7,4.8v42.9l-98.7-1.5v-50.3c6,0,6-1.2,11.9-1.2c6,0,1.7-10.6,7.6-10.6c6,0,6,2.2,11.9,2.2c6,0,6-1,11.9-1
				C65.6,115.3,67,115.4,68.1,115.5"/>
			<path class="st1" d="M68.1,115.3c1.2,0.1,2.4,0.4,3.6,0.4c1.2,0.1,2.4,0.1,3.6,0.1c1.3,0,2.6,0.5,3.5,1.4c0.9,0.9,1.6,1.9,2.3,3
				c0.6,1,1.3,2.1,2,3c0.7,0.9,1.6,1.8,2.6,2.1c0.5,0.2,1.1,0.2,1.7,0.3l1,0l1,0.1c1.3,0.2,2.5,0.9,3.5,1.6c1,0.7,1.9,1.5,3,2
				c1,0.5,2.2,0.7,3.3,0.7c1.2,0,2.4-0.1,3.6-0.2c1.2-0.1,2.4-0.3,3.6-0.5c1.2-0.2,2.5-0.2,3.7-0.3c1.2,0,2.6-0.2,4,0.6
				c0.7,0.4,1.2,1.1,1.4,1.7c0.3,0.6,0.4,1.2,0.7,1.5c0.4,0.7,1.5,0.9,2.7,0.9c0.4,0,0.8,0.3,0.8,0.8l0,0l0.4,42.9
				c0,0.6-0.5,1.2-1.1,1.2l0,0l0,0l-49.4-0.3l-24.7-0.1L20,178.2c-1.1,0-2.1-0.9-2.1-2.1l0,0l0.1-25.1l0.2-25.1l0,0
				c0-1,0.8-1.8,1.8-1.8c1.1,0,2.2,0,3.2-0.1c1.1-0.1,2.1-0.3,3.3-0.5c1.2-0.2,2.5-0.3,3.7-0.4c0.6,0,1.3,0,1.8,0
				c0.4,0,0.6,0,0.8-0.1c0.4-0.1,0.8-0.9,1.1-1.9c0.3-1,0.5-2.1,0.8-3.3c0.2-0.6,0.3-1.2,0.6-1.9c0.3-0.6,0.7-1.3,1.3-1.8
				c0.6-0.5,1.4-0.8,2.1-0.9c0.8,0,1.3,0,1.9,0c1.2,0.1,2.4,0.3,3.6,0.7c1.2,0.4,2.2,0.9,3.2,1.2c2.1,0.6,4.4,0.6,6.6,0.5
				c2.2-0.1,4.5-0.6,6.9-0.7C63.5,114.9,65.8,115,68.1,115.3c0.1,0,0.2,0.1,0.2,0.2c0,0.1-0.1,0.2-0.2,0.2c-2.3-0.2-4.6-0.2-6.9,0
				c-2.3,0.1-4.5,0.8-6.9,1c-2.3,0.2-4.7,0.3-7.1-0.2c-1.2-0.3-2.3-0.7-3.3-1c-1-0.3-2.1-0.4-3.2-0.4c-0.5,0-1.2,0-1.5,0.1
				c-0.4,0.1-0.7,0.3-1,0.5c-0.5,0.5-0.7,1.5-0.9,2.5c-0.1,1.1-0.2,2.2-0.4,3.5c-0.1,0.6-0.3,1.3-0.6,2c-0.3,0.7-0.9,1.5-1.7,2
				c-0.8,0.5-1.7,0.7-2.5,0.8c-0.7,0-1.1,0-1.7,0.1c-1.1,0.1-2.1,0.2-3.2,0.4c-1.1,0.2-2.3,0.5-3.5,0.6c-1.2,0.2-2.5,0.2-3.7,0.2
				l1.8-1.8l0.2,25.1l0.1,25.1l-2.1-2.1l24.7,0.6l24.7,0.7l49.4,1.2l-1.2,1.2l0.4-42.9l0.8,0.8c-0.7,0-1.3-0.1-2-0.3
				c-0.7-0.2-1.5-0.6-1.9-1.3c-0.4-0.7-0.6-1.3-0.8-1.8c-0.2-0.5-0.4-0.8-0.8-1.1c-0.4-0.2-0.9-0.4-1.4-0.4c-0.5-0.1-1.1,0-1.8,0
				c-1.2,0-2.4,0.1-3.6,0.2c-1.2,0.1-2.4,0.3-3.7,0.4c-1.2,0.1-2.5,0.1-3.7,0.1c-1.3,0-2.6-0.3-3.8-0.8c-1.2-0.6-2.1-1.4-3.1-2.1
				c-0.9-0.7-2-1.3-3.1-1.5l-0.9-0.1l-0.9-0.1c-0.6,0-1.3-0.1-1.9-0.3c-1.3-0.5-2.2-1.5-2.9-2.5c-0.7-1-1.3-2.1-1.9-3.1
				c-0.6-1-1.3-2.1-2.1-2.9c-0.8-0.8-1.9-1.3-3.1-1.3c-1.2,0-2.5-0.1-3.7-0.2c-1.2-0.1-2.4-0.4-3.6-0.5c-0.1,0-0.2-0.1-0.2-0.2
				C67.9,115.4,68,115.3,68.1,115.3z"/>
		</g>
	</g>
</g>
</svg>
